# xmcd
#
# Track frame offsets:
#	150
#	15607
#	30695
#	45987
#	64387
#	77750
#	91402
#	106737
#	118445
#	132047
#	148482
#	161515
#	175545
#	194645
#	211050
#
# Disc length: 3017 seconds
#
# Revision: 1
# Processed by: cddbd v1.5.1PL0 Copyright (c) Steve Scherf et al.
# Submitted via: audiograbber 1.82.02
#
DISCID=ce0bc70f
DTITLE=Various Artist - Sound Choice Country Hits Vol 4
DYEAR=1900
DGENRE=Karaoke
TTITLE0=Kathy Mattea - Eighteen wheels and a dozen roses
TTITLE1=Charlie Daniels - The south's gonna do it again
TTITLE2=George Strait - Ocean front property
TTITLE3=Collin Raye - Love, me
TTITLE4=Faith Hill - Wild one
TTITLE5=Patty Loveless - I'm that kind of girl
TTITLE6=Lee Greenwood - God bless the U.S.A.
TTITLE7=Patsy Cline - Leavin' on your mind
TTITLE8=Arron Tippin - There ain't nothin' wrong with the radio
TTITLE9=Billy Dean - We just disagree
TTITLE10=Shelly West - Jose` Cuervo
TTITLE11=Kentucky Headhunters - Dumas Walker
TTITLE12=Little Texas - God blessed Texas
TTITLE13=Toby Keith - Should've been a cowboy
TTITLE14=Pam Tillis - Cleopatra, Queen of denial
EXTD=
EXTT0=
EXTT1=
EXTT2=
EXTT3=
EXTT4=
EXTT5=
EXTT6=
EXTT7=
EXTT8=
EXTT9=
EXTT10=
EXTT11=
EXTT12=
EXTT13=
EXTT14=
PLAYORDER=
